<svg width="70" height="70" viewBox="0 0 70 70" fill="none" xmlns="http://www.w3.org/2000/svg">
<g filter="url(#filter0_d)">
<rect x="16" y="16" width="38" height="38" rx="19" fill="#3577BE"/>
</g>
<mask id="mask0" mask-type="alpha" maskUnits="userSpaceOnUse" x="16" y="16" width="38" height="38">
<rect x="16" y="16" width="38" height="38" rx="19" fill="white"/>
</mask>
<g mask="url(#mask0)">
<rect x="16" y="16" width="38" height="38" fill="#627EEA"/>
<path d="M34.6067 23.4355V32.2913L42.0385 35.636L34.6067 23.4355Z" fill="white" fill-opacity="0.602"/>
<path d="M34.6068 23.4355L27.174 35.636L34.6068 32.2913V23.4355Z" fill="white"/>
<path d="M34.6067 41.3743V47.3917L42.0435 37.0293L34.6067 41.3743Z" fill="white" fill-opacity="0.602"/>
<path d="M34.6068 47.3917V41.3733L27.174 37.0293L34.6068 47.3917Z" fill="white"/>
<path d="M34.6067 39.9816L42.0385 35.6356L34.6067 32.293V39.9816Z" fill="white" fill-opacity="0.2"/>
<path d="M27.174 35.6356L34.6068 39.9816V32.293L27.174 35.6356Z" fill="white" fill-opacity="0.602"/>
</g>
<defs>
<filter id="filter0_d" x="0" y="0" width="70" height="70" filterUnits="userSpaceOnUse" color-interpolation-filters="sRGB">
<feFlood flood-opacity="0" result="BackgroundImageFix"/>
<feColorMatrix in="SourceAlpha" type="matrix" values="0 0 0 0 0 0 0 0 0 0 0 0 0 0 0 0 0 0 127 0"/>
<feOffset/>
<feGaussianBlur stdDeviation="8"/>
<feColorMatrix type="matrix" values="0 0 0 0 0.384314 0 0 0 0 0.494118 0 0 0 0 0.917647 0 0 0 1 0"/>
<feBlend mode="normal" in2="BackgroundImageFix" result="effect1_dropShadow"/>
<feBlend mode="normal" in="SourceGraphic" in2="effect1_dropShadow" result="shape"/>
</filter>
</defs>
</svg>
