<svg width="72" height="72" viewBox="0 0 72 72" fill="none" xmlns="http://www.w3.org/2000/svg">
<g filter="url(#filter0_d)">
<rect x="16" y="16" width="40" height="40" rx="8" fill="black"/>
</g>
<mask id="mask0" mask-type="alpha" maskUnits="userSpaceOnUse" x="16" y="16" width="40" height="40">
<rect x="16" y="16" width="40" height="40" rx="8" fill="white"/>
</mask>
<g mask="url(#mask0)">
<rect x="16" y="16" width="40" height="40" fill="#003623"/>
<path d="M31.8599 40.2371C34.0851 39.3118 37.8449 37.7261 37.8449 37.7261L46.5771 30.0045C46.6383 29.9503 46.5766 29.8521 46.5014 29.8842C46.0773 30.0655 45.401 30.3546 44.8497 30.5902C41.3472 32.0871 35.2272 34.7015 31.0679 36.4751L28.7999 37.4381V39.4541C28.7999 40.5521 28.8269 41.4611 28.8629 41.4521C28.9079 41.4521 30.2489 40.9031 31.8599 40.2371Z" fill="#CBF851"/>
<path d="M29.844 33.9451L32.607 32.7751L34.281 31.2901C35.199 30.4801 36.666 29.1841 37.53 28.4101C38.403 27.6451 39.546 26.6281 40.068 26.1601C40.599 25.6921 41.022 25.3051 41.004 25.2871C40.977 25.2601 40.401 25.5031 36.405 27.1771C35.163 27.6991 32.895 28.6441 31.365 29.2921C27.477 30.9211 24.066 32.3611 23.805 32.4781L23.58 32.5771V34.5481C23.58 36.3571 23.589 36.5101 23.733 36.5011C23.823 36.4921 24.606 36.1771 25.479 35.7991C26.352 35.4211 28.314 34.5931 29.844 33.9451Z" fill="#CBF851"/>
<path d="M34.8299 33.8914C36.9809 32.9644 38.9249 32.1184 39.1499 32.0194C39.3749 31.9204 40.3109 31.1914 41.2379 30.3904L42.9299 28.9504V26.9254C42.9299 25.7734 42.8939 24.9004 42.8489 24.9004C42.7859 24.9004 41.1209 26.3134 40.9499 26.5204C40.9229 26.5474 39.7709 27.5824 38.3849 28.8154C32.4809 34.0714 31.7069 34.7734 31.2749 35.1784C31.0229 35.4124 30.8429 35.6014 30.8699 35.6014C30.8969 35.6014 32.6789 34.8274 34.8299 33.8914Z" fill="#CBF851"/>
<path d="M43.1136 39.1092C44.9136 37.3992 47.2986 35.4642 48.4686 34.1592C48.5586 32.6292 48.5586 31.8192 48.5586 30.9642C48.5586 30.1092 48.4828 29.7014 48.4681 29.6734C48.4461 29.6314 48.0636 29.9292 44.9586 32.7192C43.9822 33.5966 41.8951 35.3362 40.6836 36.4092C37.5336 39.1992 34.5966 41.9871 34.3836 42.1692L34.2 42.3233L34.2486 44.0897C34.2486 46.9058 34.2559 47.1439 34.3735 47.1299C34.4469 47.1159 35.4711 46.0876 36.1836 45.4992C36.896 44.9108 43.1136 39.1092 43.1136 39.1092Z" fill="#CBF851"/>
</g>
<defs>
<filter id="filter0_d" x="0" y="0" width="72" height="72" filterUnits="userSpaceOnUse" color-interpolation-filters="sRGB">
<feFlood flood-opacity="0" result="BackgroundImageFix"/>
<feColorMatrix in="SourceAlpha" type="matrix" values="0 0 0 0 0 0 0 0 0 0 0 0 0 0 0 0 0 0 127 0"/>
<feOffset/>
<feGaussianBlur stdDeviation="8"/>
<feColorMatrix type="matrix" values="0 0 0 0 0 0 0 0 0 0.211765 0 0 0 0 0.137255 0 0 0 0.5 0"/>
<feBlend mode="normal" in2="BackgroundImageFix" result="effect1_dropShadow"/>
<feBlend mode="normal" in="SourceGraphic" in2="effect1_dropShadow" result="shape"/>
</filter>
</defs>
</svg>
