<svg width="133" height="31" viewBox="0 0 133 31" fill="none" xmlns="http://www.w3.org/2000/svg">
<path fill-rule="evenodd" clip-rule="evenodd" d="M10.3346 31C12.9441 31 15.7465 30.3532 18.0743 28.707L19.7943 30.5443H27.1782L22.4928 25.3115C24.3907 22.8127 25.3545 19.3585 25.3545 15.3457H19.5126C19.5126 17.2859 19.0085 19.0498 18.1781 20.5197L13.73 15.5514L15.3461 14.4049C17.9112 12.5823 19.3791 10.201 19.3791 7.37885C19.3791 3.36605 16.3099 0 11.3131 0C6.15328 0 2.7282 3.57184 2.7282 8.055C2.7282 10.7155 3.95886 12.9644 5.3971 14.8606C2.16477 17.036 0 19.1086 0 22.5481C0 27.2518 3.91438 31 10.3346 31ZM10.4087 11.6709C9.40044 10.3921 8.74804 9.27501 8.74804 8.15789C8.74804 6.7615 9.75629 5.74727 11.328 5.73257C12.9738 5.71788 13.8189 6.7762 13.8189 7.84922C13.8189 8.84874 13.2852 9.87767 11.8321 10.7743L10.4087 11.6709ZM6.98361 22.0778C6.98361 24.0033 8.46633 25.3115 10.7942 25.3115C11.9062 25.3115 13.0628 25.0175 14.1451 24.459L8.98528 18.9175C7.73979 19.8288 6.98361 20.8578 6.98361 22.0778Z" fill="white"/>
<path fill-rule="evenodd" clip-rule="evenodd" d="M50.1901 30.9264C57.7519 30.9264 62.2297 27.531 62.2594 21.8131C62.2297 17.0065 58.9529 14.0668 52.9628 12.7586L50.3532 12.1706C47.5953 11.5826 45.8457 10.6713 45.905 8.87804C45.9198 7.23176 47.3432 6.04115 50.1901 6.04115C53.0517 6.04115 54.6234 7.31996 54.8162 9.466H61.8442C61.7849 3.83631 57.2626 0.0292969 50.2049 0.0292969C43.2658 0.0292969 38.269 3.77752 38.3135 9.3778C38.2987 13.9492 41.531 16.5215 46.7798 17.7121L49.9528 18.447C53.289 19.2114 54.7865 20.108 54.8162 21.7984C54.7865 23.6357 53.0517 24.9146 50.1011 24.9146C46.854 24.9146 44.7188 23.4153 44.5557 20.5196H37.5276C37.6166 27.5604 42.5541 30.9264 50.1901 30.9264Z" fill="white"/>
<path fill-rule="evenodd" clip-rule="evenodd" d="M88.1181 19.3281C88.1181 26.2807 83.7737 30.9696 76.6122 30.9696C69.4506 30.9696 65.1063 26.2807 65.1063 19.3281C65.1063 12.3608 69.4506 7.67188 76.6122 7.67188C83.7737 7.67188 88.1181 12.3608 88.1181 19.3281ZM72.4902 19.284C72.4902 23.0175 73.9729 25.5457 76.6566 25.5457C79.2514 25.5457 80.7341 23.0175 80.7341 19.284C80.7341 15.5358 79.2514 12.9929 76.6566 12.9929C73.9729 12.9929 72.4902 15.5358 72.4902 19.284Z" fill="white"/>
<path fill-rule="evenodd" clip-rule="evenodd" d="M99.6685 30.8383C103.079 30.8383 105.614 29.1038 106.622 26.3404H106.86V30.5443H113.769V7.9668H106.533V20.7989C106.533 23.43 104.843 24.8999 102.693 24.8999C100.469 24.8999 99.105 23.4007 99.0902 20.9459V7.9668H91.8397V22.357C91.8545 27.4576 94.9831 30.8383 99.6685 30.8383Z" fill="white"/>
<path fill-rule="evenodd" clip-rule="evenodd" d="M125.631 30.5444V18.2855C125.631 15.5956 127.558 13.7876 130.153 13.7876C131.013 13.7876 132.303 13.9346 133 14.1698V7.92278C132.392 7.7611 131.636 7.6582 130.969 7.6582C128.478 7.6582 126.491 9.0987 125.661 12.0826H125.423V7.96688H118.38V30.5444H125.631Z" fill="white"/>
</svg>
