<svg width="126" height="31" viewBox="0 0 126 31" fill="none" xmlns="http://www.w3.org/2000/svg">
<path fill-rule="evenodd" clip-rule="evenodd" d="M24.6764 21.8045C24.6468 27.5278 20.179 30.9264 12.6341 30.9264C5.01516 30.9264 0.0887639 27.5572 0 20.5097H7.01235C7.17508 23.4082 9.30541 24.9089 12.5453 24.9089C15.4893 24.9089 17.2202 23.6289 17.2498 21.7897C17.2202 20.0978 15.726 19.2003 12.3974 18.4352L9.23144 17.6996C3.99437 16.5078 0.769287 13.9331 0.784081 9.35738C0.739699 3.75178 5.72527 0 12.6489 0C19.6908 0 24.2029 3.81063 24.2621 9.44566H17.2498C17.0575 7.29758 15.4893 6.01756 12.6341 6.01756C9.79361 6.01756 8.37339 7.2093 8.3586 8.85714C8.29942 10.6521 10.0451 11.5643 12.7968 12.1528L15.4005 12.7413C21.3773 14.0508 24.6468 16.9934 24.6764 21.8045ZM43.9381 17.3759L40.3876 30.5439H32.6355L26.718 7.94495H33.9818L37.0441 22.4224H37.2365L40.5207 7.94495H47.607L50.9801 22.3194H51.1724L54.146 7.94495H61.4098L55.4774 30.5439H47.7402L44.1896 17.3759H43.9381ZM74.4582 30.9706C80.4201 30.9706 84.3405 28.1016 85.169 23.6583L78.5265 23.467C77.9643 24.9677 76.4849 25.7769 74.5913 25.7769C71.81 25.7769 70.0939 23.9378 70.0939 21.1718V20.9805H85.243V19.1856C85.243 11.7409 80.6864 7.65069 74.2362 7.65069C67.3718 7.65069 62.9632 12.3294 62.9632 19.3327C62.9632 26.5714 67.3127 30.9706 74.4582 30.9706ZM70.0939 16.8021H78.5117C78.4821 14.4922 76.766 12.8443 74.3842 12.8443C71.9876 12.8443 70.1975 14.551 70.0939 16.8021ZM99.5783 30.9706C105.54 30.9706 109.461 28.1016 110.289 23.6583L103.647 23.467C103.085 24.9677 101.605 25.7769 99.7115 25.7769C96.9302 25.7769 95.2141 23.9378 95.2141 21.1718V20.9805H110.363V19.1856C110.363 11.7409 105.807 7.65069 99.3564 7.65069C92.492 7.65069 88.0834 12.3294 88.0834 19.3327C88.0834 26.5714 92.4329 30.9706 99.5783 30.9706ZM95.2141 16.8021H103.632C103.602 14.4922 101.886 12.8443 99.5044 12.8443C97.1078 12.8443 95.3177 14.551 95.2141 16.8021Z" fill="white"/>
<path fill-rule="evenodd" clip-rule="evenodd" d="M122.417 30.9838C124.108 30.8952 125.326 30.541 126 30.3344L124.939 25.1242C124.639 25.198 123.936 25.3456 123.406 25.3456C122.274 25.3456 121.629 24.8733 121.629 23.5301V13.3017H125.599V7.9882H121.629V2.55664H114.621V7.9882H111.711V13.3017H114.621V24.3272C114.578 28.9174 117.473 31.2199 122.417 30.9838Z" fill="white"/>
</svg>
